# xmcd
#
# Track frame offsets:
#	150
#	89057
#	112043
#	128373
#	153999
#	166176
#	180967
#	194821
#	212792
#	223725
#	247202
#	264812
#	281571
#	300647
#	318256
#
# Disc length: 4529 seconds
#
# Revision: 1
# Processed by: cddbd v1.5.2PL0 Copyright (c) Steve Scherf et al.
# Submitted via: audiograbber 1.83.01
#
DISCID=d711af0f
DTITLE=Canned Heat - Instrumentals 1967 - 1996
DYEAR=2006
DGENRE=Blues
TTITLE0=Parthenogenesis
TTITLE1=Marie Laveau
TTITLE2=Mi Huautia
TTITLE3=Down In The Gutter But Free
TTITLE4=Skat
TTITLE5=Terraplane Blues
TTITLE6=Hill Stomp
TTITLE7=Don't Care What You Tell Me
TTITLE8=Caterpillar Crawl
TTITLE9=Hucklebuck
TTITLE10=JJ Jump
TTITLE11=Gorgo Boogie
TTITLE12=Junior's Shuffle
TTITLE13=Mambo Tango
TTITLE14=Blues After Hours
EXTD=
EXTT0=
EXTT1=
EXTT2=
EXTT3=
EXTT4=
EXTT5=
EXTT6=
EXTT7=
EXTT8=
EXTT9=
EXTT10=
EXTT11=
EXTT12=
EXTT13=
EXTT14=
PLAYORDER=
